<svg width="496" height="48" viewBox="0 0 496 48" fill="none" xmlns="http://www.w3.org/2000/svg">
<path d="M6.8821 19.3196C5.66051 19.3149 4.60938 19.0142 3.72869 18.4176C2.85275 17.821 2.17803 16.9569 1.70455 15.8253C1.2358 14.6937 1.00379 13.3324 1.00852 11.7415C1.00852 10.1553 1.2429 8.8035 1.71165 7.68608C2.18513 6.56865 2.85985 5.71875 3.7358 5.13636C4.61648 4.54924 5.66525 4.25568 6.8821 4.25568C8.09896 4.25568 9.14536 4.54924 10.0213 5.13636C10.902 5.72348 11.5791 6.57576 12.0526 7.69318C12.526 8.80587 12.7604 10.1553 12.7557 11.7415C12.7557 13.3371 12.5189 14.7008 12.0455 15.8324C11.5767 16.964 10.9044 17.8281 10.0284 18.4247C9.15246 19.0213 8.10369 19.3196 6.8821 19.3196ZM6.8821 16.7699C7.71544 16.7699 8.38068 16.3509 8.87784 15.5128C9.375 14.6747 9.62121 13.4176 9.61648 11.7415C9.61648 10.6383 9.50284 9.7197 9.27557 8.9858C9.05303 8.25189 8.7358 7.70028 8.32386 7.33097C7.91667 6.96165 7.43608 6.77699 6.8821 6.77699C6.0535 6.77699 5.39063 7.19129 4.89347 8.01989C4.39631 8.84848 4.14536 10.089 4.14062 11.7415C4.14062 12.8589 4.25189 13.7917 4.47443 14.5398C4.7017 15.2831 5.02131 15.8419 5.43324 16.2159C5.84517 16.5852 6.32812 16.7699 6.8821 16.7699ZM14.9485 19V16.7841L20.1261 11.9901C20.5664 11.5639 20.9357 11.1804 21.234 10.8395C21.5371 10.4986 21.7667 10.1648 21.9229 9.83807C22.0792 9.50663 22.1573 9.14915 22.1573 8.76562C22.1573 8.33949 22.0603 7.97254 21.8661 7.66477C21.672 7.35227 21.4068 7.11316 21.0707 6.94744C20.7345 6.77699 20.3533 6.69176 19.9272 6.69176C19.4821 6.69176 19.0939 6.78172 18.7624 6.96165C18.431 7.14157 18.1753 7.39962 17.9954 7.7358C17.8155 8.07197 17.7255 8.47206 17.7255 8.93608H14.8065C14.8065 7.98437 15.0219 7.15814 15.4528 6.45739C15.8836 5.75663 16.4873 5.21449 17.2638 4.83097C18.0404 4.44744 18.9353 4.25568 19.9485 4.25568C20.9902 4.25568 21.8969 4.44034 22.6687 4.80966C23.4452 5.17424 24.0489 5.68087 24.4798 6.32955C24.9106 6.97822 25.1261 7.72159 25.1261 8.55966C25.1261 9.1089 25.0172 9.65104 24.7994 10.1861C24.5863 10.7211 24.2051 11.3153 23.6559 11.9688C23.1067 12.6174 22.3325 13.3963 21.3335 14.3054L19.2099 16.3864V16.4858H25.3178V19H14.9485Z" fill="#0F77C2"/>
<rect y="34" width="28.8059" height="3" rx="1.5" fill="#0F77C2"/>
<rect x="23.4048" y="34" width="463.595" height="3" rx="1.5" fill="#0F77C2" fill-opacity="0.32"/>
<circle cx="484" cy="36" r="12" fill="#0F77C2" fill-opacity="0.42"/>
<circle cx="484" cy="36" r="9" fill="#0F77C2" fill-opacity="0.72"/>
<circle cx="484" cy="36" r="6" fill="#0F77C2"/>
</svg>
