<svg width="239" height="43" viewBox="0 0 239 43" fill="none" xmlns="http://www.w3.org/2000/svg">
<path d="M218.882 19.3196C217.661 19.3149 216.609 19.0142 215.729 18.4176C214.853 17.821 214.178 16.9569 213.705 15.8253C213.236 14.6937 213.004 13.3324 213.009 11.7415C213.009 10.1553 213.243 8.8035 213.712 7.68608C214.185 6.56865 214.86 5.71875 215.736 5.13636C216.616 4.54924 217.665 4.25568 218.882 4.25568C220.099 4.25568 221.145 4.54924 222.021 5.13636C222.902 5.72348 223.579 6.57576 224.053 7.69318C224.526 8.80587 224.76 10.1553 224.756 11.7415C224.756 13.3371 224.519 14.7008 224.045 15.8324C223.577 16.964 222.904 17.8281 222.028 18.4247C221.152 19.0213 220.104 19.3196 218.882 19.3196ZM218.882 16.7699C219.715 16.7699 220.381 16.3509 220.878 15.5128C221.375 14.6747 221.621 13.4176 221.616 11.7415C221.616 10.6383 221.503 9.7197 221.276 8.9858C221.053 8.25189 220.736 7.70028 220.324 7.33097C219.917 6.96165 219.436 6.77699 218.882 6.77699C218.054 6.77699 217.391 7.19129 216.893 8.01989C216.396 8.84848 216.145 10.089 216.141 11.7415C216.141 12.8589 216.252 13.7917 216.474 14.5398C216.702 15.2831 217.021 15.8419 217.433 16.2159C217.845 16.5852 218.328 16.7699 218.882 16.7699ZM232.325 19.1989C231.264 19.1989 230.32 19.0166 229.491 18.652C228.667 18.2827 228.016 17.776 227.538 17.1321C227.065 16.4834 226.821 15.7353 226.806 14.8878H229.903C229.922 15.2429 230.038 15.5554 230.251 15.8253C230.469 16.0904 230.758 16.2964 231.118 16.4432C231.477 16.59 231.882 16.6634 232.332 16.6634C232.801 16.6634 233.215 16.5805 233.575 16.4148C233.935 16.2491 234.217 16.0194 234.42 15.7259C234.624 15.4323 234.725 15.0937 234.725 14.7102C234.725 14.322 234.617 13.9787 234.399 13.6804C234.186 13.3774 233.878 13.1406 233.475 12.9702C233.078 12.7997 232.604 12.7145 232.055 12.7145H230.699V10.456H232.055C232.519 10.456 232.929 10.3755 233.284 10.2145C233.644 10.0535 233.923 9.83097 234.122 9.54688C234.321 9.25805 234.42 8.92188 234.42 8.53835C234.42 8.17377 234.333 7.85417 234.157 7.57955C233.987 7.30019 233.745 7.08239 233.433 6.92614C233.125 6.76989 232.765 6.69176 232.353 6.69176C231.937 6.69176 231.556 6.76752 231.21 6.91903C230.864 7.06581 230.587 7.27651 230.379 7.55114C230.171 7.82576 230.059 8.14773 230.045 8.51705H227.098C227.112 7.67898 227.351 6.94034 227.815 6.30114C228.279 5.66193 228.904 5.1624 229.69 4.80256C230.481 4.43797 231.373 4.25568 232.368 4.25568C233.371 4.25568 234.25 4.43797 235.002 4.80256C235.755 5.16714 236.34 5.65956 236.757 6.27983C237.178 6.89536 237.386 7.58665 237.382 8.35369C237.386 9.16809 237.133 9.84754 236.622 10.392C236.115 10.9366 235.455 11.2822 234.64 11.429V11.5426C235.71 11.6799 236.525 12.0516 237.083 12.6577C237.647 13.259 237.926 14.0118 237.922 14.9162C237.926 15.7448 237.687 16.4811 237.204 17.125C236.726 17.7689 236.065 18.2756 235.223 18.6449C234.38 19.0142 233.414 19.1989 232.325 19.1989Z" fill="#0F77C2"/>
<rect x="207" y="29" width="32" height="3" rx="1.5" fill="#0F77C2"/>
<rect x="12" y="29" width="198" height="3" rx="1.5" fill="#0F77C2" fill-opacity="0.32"/>
<circle cx="12" cy="31" r="12" fill="#0F77C2" fill-opacity="0.42"/>
<circle cx="12" cy="31" r="9" fill="#0F77C2" fill-opacity="0.72"/>
<circle cx="12" cy="31" r="6" fill="#0F77C2"/>
</svg>
