<svg width="264" height="33" viewBox="0 0 264 33" fill="none" xmlns="http://www.w3.org/2000/svg">
<path d="M241.058 19.3196C239.836 19.3149 238.785 19.0142 237.904 18.4176C237.029 17.821 236.354 16.9569 235.88 15.8253C235.412 14.6937 235.18 13.3324 235.184 11.7415C235.184 10.1553 235.419 8.8035 235.887 7.68608C236.361 6.56865 237.036 5.71875 237.912 5.13636C238.792 4.54924 239.841 4.25568 241.058 4.25568C242.275 4.25568 243.321 4.54924 244.197 5.13636C245.078 5.72348 245.755 6.57576 246.228 7.69318C246.702 8.80587 246.936 10.1553 246.931 11.7415C246.931 13.3371 246.695 14.7008 246.221 15.8324C245.752 16.964 245.08 17.8281 244.204 18.4247C243.328 19.0213 242.279 19.3196 241.058 19.3196ZM241.058 16.7699C241.891 16.7699 242.556 16.3509 243.054 15.5128C243.551 14.6747 243.797 13.4176 243.792 11.7415C243.792 10.6383 243.679 9.7197 243.451 8.9858C243.229 8.25189 242.912 7.70028 242.5 7.33097C242.092 6.96165 241.612 6.77699 241.058 6.77699C240.229 6.77699 239.566 7.19129 239.069 8.01989C238.572 8.84848 238.321 10.089 238.316 11.7415C238.316 12.8589 238.428 13.7917 238.65 14.5398C238.877 15.2831 239.197 15.8419 239.609 16.2159C240.021 16.5852 240.504 16.7699 241.058 16.7699ZM255.452 4.45455V19H252.377V7.37358H252.292L248.961 9.46165V6.73438L252.562 4.45455H255.452Z" fill="#0F77C2"/>
<rect x="228.653" y="22.1584" width="35.3473" height="2.29225" rx="1.14612" fill="#0F77C2"/>
<rect x="13.2552" y="22.1584" width="218.711" height="2.29225" rx="1.14612" fill="#0F77C2" fill-opacity="0.32"/>
<ellipse cx="13.2552" cy="23.6866" rx="13.2552" ry="9.16899" fill="#0F77C2" fill-opacity="0.42"/>
<ellipse cx="13.2553" cy="23.6866" rx="9.94142" ry="6.87675" fill="#0F77C2" fill-opacity="0.72"/>
<ellipse cx="13.2552" cy="23.6865" rx="6.62761" ry="4.5845" fill="#0F77C2"/>
</svg>
