<svg width="25" height="21" viewBox="0 0 25 21" fill="none" xmlns="http://www.w3.org/2000/svg">
<path d="M9.375 0C4.2 0 0 3.53063 0 7.875C0 10.3556 1.35 12.5475 3.475 13.9912L2.5 17.0625L5.625 15.0938C6.7375 15.5006 7.9625 15.75 9.2625 15.75C8.9375 14.9231 8.75 14.0437 8.75 13.125C8.75 8.78063 12.6625 5.25 17.5 5.25C17.7375 5.25 17.975 5.25 18.2 5.28937C16.925 2.21812 13.475 0 9.375 0ZM5.625 3.28125C5.95652 3.28125 6.27446 3.41953 6.50888 3.66567C6.7433 3.91181 6.875 4.24565 6.875 4.59375C6.875 4.94185 6.7433 5.27569 6.50888 5.52183C6.27446 5.76797 5.95652 5.90625 5.625 5.90625C5.29348 5.90625 4.97554 5.76797 4.74112 5.52183C4.5067 5.27569 4.375 4.94185 4.375 4.59375C4.375 4.24565 4.5067 3.91181 4.74112 3.66567C4.97554 3.41953 5.29348 3.28125 5.625 3.28125ZM11.875 3.28125C12.2065 3.28125 12.5245 3.41953 12.7589 3.66567C12.9933 3.91181 13.125 4.24565 13.125 4.59375C13.125 4.94185 12.9933 5.27569 12.7589 5.52183C12.5245 5.76797 12.2065 5.90625 11.875 5.90625C11.5435 5.90625 11.2255 5.76797 10.9911 5.52183C10.7567 5.27569 10.625 4.94185 10.625 4.59375C10.625 4.24565 10.7567 3.91181 10.9911 3.66567C11.2255 3.41953 11.5435 3.28125 11.875 3.28125ZM17.5 6.5625C13.3625 6.5625 10 9.5025 10 13.125C10 16.7475 13.3625 19.6875 17.5 19.6875C18.3375 19.6875 19.1375 19.5825 19.8875 19.3594L22.5 21L21.725 18.5456C23.6875 17.3512 25 15.3694 25 13.125C25 9.5025 21.6375 6.5625 17.5 6.5625ZM15 9.84375C15.3315 9.84375 15.6495 9.98203 15.8839 10.2282C16.1183 10.4743 16.25 10.8082 16.25 11.1562C16.25 11.5043 16.1183 11.8382 15.8839 12.0843C15.6495 12.3305 15.3315 12.4688 15 12.4688C14.6685 12.4688 14.3505 12.3305 14.1161 12.0843C13.8817 11.8382 13.75 11.5043 13.75 11.1562C13.75 10.8082 13.8817 10.4743 14.1161 10.2282C14.3505 9.98203 14.6685 9.84375 15 9.84375ZM20 9.84375C20.3315 9.84375 20.6495 9.98203 20.8839 10.2282C21.1183 10.4743 21.25 10.8082 21.25 11.1562C21.25 11.5043 21.1183 11.8382 20.8839 12.0843C20.6495 12.3305 20.3315 12.4688 20 12.4688C19.6685 12.4688 19.3505 12.3305 19.1161 12.0843C18.8817 11.8382 18.75 11.5043 18.75 11.1562C18.75 10.8082 18.8817 10.4743 19.1161 10.2282C19.3505 9.98203 19.6685 9.84375 20 9.84375Z" fill="#0F77C2"/>
</svg>
